<mxfile host="app.diagrams.net" modified="2024-04-02T00:55:35.158Z" agent="Mozilla/5.0 (Windows NT 10.0; Win64; x64) AppleWebKit/537.36 (KHTML, like Gecko) Chrome/123.0.0.0 Safari/537.36 Edg/123.0.0.0" etag="U-BUjdt3LSWzcO9CLYPc" version="24.2.1" type="github">
  <diagram name="Page-1" id="8iBUxMn4LXbfr8T7TTTz">
    <mxGraphModel dx="1608" dy="1606" grid="1" gridSize="10" guides="1" tooltips="1" connect="1" arrows="1" fold="1" page="1" pageScale="1" pageWidth="827" pageHeight="1169" math="0" shadow="0">
      <root>
        <mxCell id="0" />
        <mxCell id="1" parent="0" />
        <mxCell id="a-yYZZEBPSqlxOCxGpY_-8" value="" style="rounded=0;whiteSpace=wrap;html=1;shadow=1;strokeColor=none;" vertex="1" parent="1">
          <mxGeometry width="510" height="210" as="geometry" />
        </mxCell>
        <mxCell id="a-yYZZEBPSqlxOCxGpY_-9" value="" style="edgeStyle=orthogonalEdgeStyle;rounded=0;orthogonalLoop=1;jettySize=auto;html=1;" edge="1" parent="1" source="a-yYZZEBPSqlxOCxGpY_-10" target="a-yYZZEBPSqlxOCxGpY_-14">
          <mxGeometry relative="1" as="geometry" />
        </mxCell>
        <mxCell id="a-yYZZEBPSqlxOCxGpY_-10" value="大货订单信息" style="rounded=0;whiteSpace=wrap;html=1;fillColor=#dae8fc;strokeColor=#6c8ebf;" vertex="1" parent="1">
          <mxGeometry x="30" y="50" width="120" height="60" as="geometry" />
        </mxCell>
        <mxCell id="a-yYZZEBPSqlxOCxGpY_-11" value="" style="edgeStyle=orthogonalEdgeStyle;rounded=0;orthogonalLoop=1;jettySize=auto;html=1;" edge="1" parent="1" source="a-yYZZEBPSqlxOCxGpY_-12" target="a-yYZZEBPSqlxOCxGpY_-14">
          <mxGeometry relative="1" as="geometry" />
        </mxCell>
        <mxCell id="a-yYZZEBPSqlxOCxGpY_-12" value="物料清单信息（BOM)" style="rounded=0;whiteSpace=wrap;html=1;fillColor=#dae8fc;strokeColor=#6c8ebf;" vertex="1" parent="1">
          <mxGeometry x="30" y="130" width="120" height="60" as="geometry" />
        </mxCell>
        <mxCell id="a-yYZZEBPSqlxOCxGpY_-13" value="" style="edgeStyle=orthogonalEdgeStyle;rounded=0;orthogonalLoop=1;jettySize=auto;html=1;" edge="1" parent="1" source="a-yYZZEBPSqlxOCxGpY_-14" target="a-yYZZEBPSqlxOCxGpY_-15">
          <mxGeometry relative="1" as="geometry" />
        </mxCell>
        <mxCell id="a-yYZZEBPSqlxOCxGpY_-14" value="物料采购事项" style="rounded=0;whiteSpace=wrap;html=1;fillColor=#dae8fc;strokeColor=#6c8ebf;" vertex="1" parent="1">
          <mxGeometry x="200" y="90" width="120" height="60" as="geometry" />
        </mxCell>
        <mxCell id="a-yYZZEBPSqlxOCxGpY_-15" value="齐套跟踪仪表盘" style="rounded=0;whiteSpace=wrap;html=1;fillColor=#dae8fc;strokeColor=#6c8ebf;" vertex="1" parent="1">
          <mxGeometry x="360" y="90" width="120" height="60" as="geometry" />
        </mxCell>
        <mxCell id="a-yYZZEBPSqlxOCxGpY_-16" value="采购物料齐套跟踪表" style="text;html=1;align=center;verticalAlign=middle;resizable=0;points=[];autosize=1;strokeColor=none;fillColor=none;fontStyle=1" vertex="1" parent="1">
          <mxGeometry x="25" y="3" width="130" height="30" as="geometry" />
        </mxCell>
      </root>
    </mxGraphModel>
  </diagram>
</mxfile>
